<mxfile host="app.diagrams.net" modified="2020-05-23T04:37:00.927Z" agent="5.0 (Windows NT 10.0; Win64; x64) AppleWebKit/537.36 (KHTML, like Gecko) Chrome/81.0.4044.138 Safari/537.36" etag="cYgvAKRnk3S4aAHwG-y5" version="13.1.3" type="github">
  <diagram id="THPSRGsQop3PX9e4Uymi" name="Page-1">
    <mxGraphModel dx="868" dy="450" grid="1" gridSize="10" guides="1" tooltips="1" connect="1" arrows="1" fold="1" page="1" pageScale="1" pageWidth="827" pageHeight="1169" math="0" shadow="0">
      <root>
        <mxCell id="0" />
        <mxCell id="1" parent="0" />
        <mxCell id="l3Q6PpPCziIq4NBjd-yP-11" value="" style="rounded=0;whiteSpace=wrap;html=1;strokeColor=#CC0000;gradientColor=none;" vertex="1" parent="1">
          <mxGeometry x="40" y="90" width="260" height="630" as="geometry" />
        </mxCell>
        <mxCell id="SKLjpIydk1iUgqQTPu1M-3" value="" style="rounded=1;whiteSpace=wrap;html=1;strokeColor=#FF3D84;arcSize=35;" parent="1" vertex="1">
          <mxGeometry x="50" y="110" width="240" height="60" as="geometry" />
        </mxCell>
        <mxCell id="SKLjpIydk1iUgqQTPu1M-6" value="" style="shape=parallelMarker;direction=south;html=1;outlineConnect=0;strokeColor=#CC0000;fillColor=#f8cecc;" parent="1" vertex="1">
          <mxGeometry x="250" y="133" width="14" height="14" as="geometry" />
        </mxCell>
        <mxCell id="l3Q6PpPCziIq4NBjd-yP-1" value="" style="rounded=1;whiteSpace=wrap;html=1;" vertex="1" parent="1">
          <mxGeometry x="50" y="200" width="240" height="110" as="geometry" />
        </mxCell>
        <mxCell id="l3Q6PpPCziIq4NBjd-yP-3" value="" style="html=1;shadow=0;dashed=0;align=center;verticalAlign=middle;shape=mxgraph.arrows2.arrow;dy=0.6;dx=40;flipH=1;notch=0;" vertex="1" parent="1">
          <mxGeometry x="70" y="245" width="20" height="20" as="geometry" />
        </mxCell>
        <mxCell id="l3Q6PpPCziIq4NBjd-yP-6" value="" style="html=1;shadow=0;dashed=0;align=center;verticalAlign=middle;shape=mxgraph.arrows2.arrow;dy=0.6;dx=40;flipH=1;notch=0;rotation=-180;" vertex="1" parent="1">
          <mxGeometry x="250" y="245" width="20" height="20" as="geometry" />
        </mxCell>
        <mxCell id="l3Q6PpPCziIq4NBjd-yP-13" value="Celular" style="text;strokeColor=none;fillColor=none;html=1;fontSize=24;fontStyle=1;verticalAlign=middle;align=center;" vertex="1" parent="1">
          <mxGeometry x="104" y="20" width="100" height="40" as="geometry" />
        </mxCell>
        <mxCell id="l3Q6PpPCziIq4NBjd-yP-14" value="carrito" style="text;html=1;strokeColor=none;fillColor=none;align=center;verticalAlign=middle;whiteSpace=wrap;rounded=0;" vertex="1" parent="1">
          <mxGeometry x="180" y="130" width="40" height="20" as="geometry" />
        </mxCell>
        <mxCell id="l3Q6PpPCziIq4NBjd-yP-15" value="logo" style="text;html=1;strokeColor=none;fillColor=none;align=center;verticalAlign=middle;whiteSpace=wrap;rounded=0;" vertex="1" parent="1">
          <mxGeometry x="80" y="130" width="40" height="20" as="geometry" />
        </mxCell>
        <mxCell id="l3Q6PpPCziIq4NBjd-yP-18" value="" style="rounded=0;whiteSpace=wrap;html=1;strokeColor=#CC0000;gradientColor=none;" vertex="1" parent="1">
          <mxGeometry x="60" y="330" width="220" height="120" as="geometry" />
        </mxCell>
        <mxCell id="l3Q6PpPCziIq4NBjd-yP-19" value="&lt;h1&gt;&amp;nbsp; &amp;nbsp; &amp;nbsp; Slogan&lt;/h1&gt;&lt;p&gt;Lorem ipsum dolor sit amet, consectetur adipisicing elit, sed do eiusmod tempor incididunt ut labore et dolore magna aliqua.&lt;/p&gt;" style="text;html=1;strokeColor=none;fillColor=none;spacing=5;spacingTop=-20;whiteSpace=wrap;overflow=hidden;rounded=0;" vertex="1" parent="1">
          <mxGeometry x="75" y="330" width="190" height="120" as="geometry" />
        </mxCell>
        <mxCell id="l3Q6PpPCziIq4NBjd-yP-21" value="" style="rounded=1;whiteSpace=wrap;html=1;strokeColor=#CC0000;gradientColor=none;" vertex="1" parent="1">
          <mxGeometry x="60" y="470" width="220" height="150" as="geometry" />
        </mxCell>
        <mxCell id="l3Q6PpPCziIq4NBjd-yP-22" value="" style="whiteSpace=wrap;html=1;aspect=fixed;strokeColor=#CC0000;gradientColor=none;" vertex="1" parent="1">
          <mxGeometry x="75" y="492.5" width="35" height="35" as="geometry" />
        </mxCell>
        <mxCell id="l3Q6PpPCziIq4NBjd-yP-23" value="" style="rounded=1;whiteSpace=wrap;html=1;strokeColor=#CC0000;gradientColor=none;direction=south;" vertex="1" parent="1">
          <mxGeometry x="130" y="480" width="30" height="60" as="geometry" />
        </mxCell>
        <mxCell id="l3Q6PpPCziIq4NBjd-yP-24" value="" style="whiteSpace=wrap;html=1;aspect=fixed;strokeColor=#CC0000;gradientColor=none;" vertex="1" parent="1">
          <mxGeometry x="180" y="492.5" width="35" height="35" as="geometry" />
        </mxCell>
        <mxCell id="l3Q6PpPCziIq4NBjd-yP-25" value="" style="rounded=1;whiteSpace=wrap;html=1;strokeColor=#CC0000;gradientColor=none;direction=south;" vertex="1" parent="1">
          <mxGeometry x="235" y="480" width="30" height="60" as="geometry" />
        </mxCell>
        <mxCell id="l3Q6PpPCziIq4NBjd-yP-26" value="" style="rounded=1;whiteSpace=wrap;html=1;strokeColor=#CC0000;gradientColor=none;direction=south;" vertex="1" parent="1">
          <mxGeometry x="77.5" y="550" width="30" height="60" as="geometry" />
        </mxCell>
        <mxCell id="l3Q6PpPCziIq4NBjd-yP-27" value="" style="whiteSpace=wrap;html=1;aspect=fixed;strokeColor=#CC0000;gradientColor=none;" vertex="1" parent="1">
          <mxGeometry x="125" y="562.5" width="35" height="35" as="geometry" />
        </mxCell>
        <mxCell id="l3Q6PpPCziIq4NBjd-yP-28" value="" style="whiteSpace=wrap;html=1;aspect=fixed;strokeColor=#CC0000;gradientColor=none;" vertex="1" parent="1">
          <mxGeometry x="180" y="562.5" width="35" height="35" as="geometry" />
        </mxCell>
        <mxCell id="l3Q6PpPCziIq4NBjd-yP-29" value="" style="rounded=1;whiteSpace=wrap;html=1;strokeColor=#CC0000;gradientColor=none;direction=south;" vertex="1" parent="1">
          <mxGeometry x="234" y="550" width="30" height="60" as="geometry" />
        </mxCell>
        <mxCell id="l3Q6PpPCziIq4NBjd-yP-30" value="" style="endArrow=classic;html=1;" edge="1" parent="1" source="l3Q6PpPCziIq4NBjd-yP-21">
          <mxGeometry width="50" height="50" relative="1" as="geometry">
            <mxPoint x="370" y="560" as="sourcePoint" />
            <mxPoint x="420" y="510" as="targetPoint" />
          </mxGeometry>
        </mxCell>
        <mxCell id="l3Q6PpPCziIq4NBjd-yP-31" value="GalerÃ­a" style="text;html=1;strokeColor=none;fillColor=none;align=center;verticalAlign=middle;whiteSpace=wrap;rounded=0;" vertex="1" parent="1">
          <mxGeometry x="440" y="500" width="40" height="20" as="geometry" />
        </mxCell>
        <mxCell id="l3Q6PpPCziIq4NBjd-yP-32" value="" style="rounded=1;whiteSpace=wrap;html=1;strokeColor=#CC0000;gradientColor=none;" vertex="1" parent="1">
          <mxGeometry x="60" y="640" width="220" height="60" as="geometry" />
        </mxCell>
        <mxCell id="l3Q6PpPCziIq4NBjd-yP-33" value="Footer" style="text;html=1;strokeColor=none;fillColor=none;align=center;verticalAlign=middle;whiteSpace=wrap;rounded=0;" vertex="1" parent="1">
          <mxGeometry x="150" y="660" width="40" height="20" as="geometry" />
        </mxCell>
        <mxCell id="l3Q6PpPCziIq4NBjd-yP-34" value="Tablet" style="text;strokeColor=none;fillColor=none;html=1;fontSize=24;fontStyle=1;verticalAlign=middle;align=center;" vertex="1" parent="1">
          <mxGeometry x="530" y="20" width="100" height="40" as="geometry" />
        </mxCell>
      </root>
    </mxGraphModel>
  </diagram>
</mxfile>
